<?xml version="1.0" encoding="UTF-8"?>
<svg xmlns="http://www.w3.org/2000/svg" xmlns:xlink="http://www.w3.org/1999/xlink" width="50pt" height="50pt" viewBox="0 0 50 50" version="1.1">
<g id="surface1">
<path style=" stroke:none;fill-rule:nonzero;fill:#5B5B5B;fill-opacity:1;" d="M 2.976563 1.984375 L 2.976563 3.96875 L 46.628906 3.96875 L 46.628906 1.984375 Z M 7.75 5.953125 C 7.277344 6.042969 6.9375 6.460938 6.945313 6.945313 L 6.945313 45.636719 C 6.945313 46.179688 7.390625 46.628906 7.9375 46.628906 L 21.824219 46.628906 C 22.371094 46.628906 22.816406 46.179688 22.816406 45.636719 L 22.816406 6.945313 C 22.816406 6.398438 22.371094 5.953125 21.824219 5.953125 L 7.9375 5.953125 C 7.90625 5.953125 7.875 5.953125 7.84375 5.953125 C 7.8125 5.953125 7.78125 5.953125 7.75 5.953125 Z M 27.777344 5.953125 C 27.226563 5.953125 26.785156 6.398438 26.785156 6.945313 L 26.785156 35.714844 C 26.785156 36.265625 27.226563 36.707031 27.777344 36.707031 L 41.667969 36.707031 C 42.21875 36.707031 42.660156 36.265625 42.660156 35.714844 L 42.660156 6.945313 C 42.660156 6.398438 42.21875 5.953125 41.667969 5.953125 Z M 8.929688 7.9375 L 20.832031 7.9375 L 20.832031 44.644531 L 8.929688 44.644531 Z "/>
</g>
</svg>
