<?xml version="1.0" standalone="no"?><!-- Generator: Gravit.io --><svg xmlns="http://www.w3.org/2000/svg" xmlns:xlink="http://www.w3.org/1999/xlink" style="isolation:isolate" viewBox="0 0 66.667 66.667" width="66.667" height="66.667"><defs><clipPath id="_clipPath_rByT98rcZQO2Nskkj7ytNe1lJjhGacaP"><rect width="66.667" height="66.667"/></clipPath></defs><g clip-path="url(#_clipPath_rByT98rcZQO2Nskkj7ytNe1lJjhGacaP)"><path d=" M 10.333 5.969 C 9.698 6.089 9.245 6.646 9.26 7.292 L 9.26 58.88 C 9.26 59.609 9.854 60.203 10.583 60.203 L 29.099 60.203 C 29.828 60.203 30.422 59.609 30.422 58.88 L 30.422 7.292 C 30.422 6.562 29.828 5.969 29.099 5.969 L 10.333 5.969 Z  M 11.906 8.615 L 27.776 8.615 L 27.776 57.557 L 11.906 57.557 L 11.906 8.615 Z  M 37.036 13.198 C 36.307 13.198 35.714 13.792 35.714 14.521 L 35.714 52.88 C 35.714 53.609 36.307 54.203 37.036 54.203 L 55.557 54.203 C 56.286 54.203 56.88 53.609 56.88 52.88 L 56.88 14.521 C 56.88 13.792 56.286 13.198 55.557 13.198 L 37.036 13.198 Z  M 3.969 32.849 L 3.969 35.49 L 62.172 35.49 L 62.172 32.849 L 3.969 32.849 Z " fill="rgb(91,91,91)"/></g></svg>