<?xml version="1.0" encoding="UTF-8"?>
<svg xmlns="http://www.w3.org/2000/svg" xmlns:xlink="http://www.w3.org/1999/xlink" width="50pt" height="50pt" viewBox="0 0 50 50" version="1.1">
<g id="surface1">
<path style=" stroke:none;fill-rule:nonzero;fill:#5B5B5B;fill-opacity:1;" d="M 7.75 2.976563 C 7.273438 3.066406 6.933594 3.484375 6.945313 3.96875 L 6.945313 42.660156 C 6.945313 43.207031 7.390625 43.652344 7.9375 43.652344 L 21.824219 43.652344 C 22.371094 43.652344 22.816406 43.207031 22.816406 42.660156 L 22.816406 3.96875 C 22.816406 3.421875 22.371094 2.976563 21.824219 2.976563 Z M 8.929688 4.960938 L 20.832031 4.960938 L 20.832031 41.667969 L 8.929688 41.667969 Z M 27.777344 12.898438 C 27.230469 12.898438 26.785156 13.34375 26.785156 13.890625 L 26.785156 42.660156 C 26.785156 43.207031 27.230469 43.652344 27.777344 43.652344 L 41.667969 43.652344 C 42.214844 43.652344 42.660156 43.207031 42.660156 42.660156 L 42.660156 13.890625 C 42.660156 13.34375 42.214844 12.898438 41.667969 12.898438 Z M 2.976563 45.636719 L 2.976563 47.617188 L 46.628906 47.617188 L 46.628906 45.636719 Z "/>
</g>
</svg>
