<?xml version="1.0" encoding="UTF-8"?>
<svg xmlns="http://www.w3.org/2000/svg" xmlns:xlink="http://www.w3.org/1999/xlink" width="50pt" height="50pt" viewBox="0 0 50 50" version="1.1">
<g id="surface1">
<path style=" stroke:none;fill-rule:nonzero;fill:#5B5B5B;fill-opacity:1;" d="M 9.425781 4.246094 C 8.914063 4.292969 8.523438 4.722656 8.527344 5.238281 L 8.527344 43.496094 C 8.527344 44.042969 8.972656 44.488281 9.519531 44.488281 L 28.058594 44.488281 C 29.84375 44.488281 31.59375 44.25 33.296875 43.804688 C 33.304688 43.800781 33.320313 43.808594 33.328125 43.804688 C 35.042969 43.347656 36.613281 42.660156 37.976563 41.699219 C 39.371094 40.71875 40.476563 39.421875 41.292969 37.882813 C 42.132813 36.308594 42.535156 34.453125 42.535156 32.398438 C 42.535156 29.84375 41.894531 27.605469 40.613281 25.730469 C 39.660156 24.339844 38.242188 23.367188 36.613281 22.601563 C 37.660156 21.886719 38.589844 21.089844 39.25 20.121094 C 40.253906 18.644531 40.707031 16.804688 40.707031 14.726563 C 40.707031 12.832031 40.417969 11.183594 39.746094 9.796875 C 39.085938 8.441406 38.136719 7.308594 36.921875 6.480469 C 35.730469 5.660156 34.3125 5.121094 32.707031 4.773438 C 31.125 4.4375 29.378906 4.246094 27.5 4.246094 L 9.519531 4.246094 C 9.488281 4.246094 9.457031 4.246094 9.425781 4.246094 Z M 10.507813 6.230469 L 27.5 6.230469 C 29.25 6.230469 30.859375 6.398438 32.273438 6.695313 C 32.28125 6.695313 32.296875 6.695313 32.304688 6.695313 C 33.6875 6.996094 34.867188 7.480469 35.808594 8.121094 C 36.738281 8.757813 37.425781 9.59375 37.945313 10.664063 C 38.453125 11.707031 38.722656 13.046875 38.722656 14.726563 C 38.722656 16.503906 38.347656 17.90625 37.605469 19.003906 C 36.847656 20.121094 35.695313 21.0625 34.101563 21.824219 C 33.746094 22.007813 33.53125 22.390625 33.566406 22.789063 C 33.601563 23.191406 33.875 23.535156 34.257813 23.65625 C 36.445313 24.285156 37.980469 25.359375 39 26.847656 C 40.039063 28.367188 40.550781 30.164063 40.550781 32.398438 C 40.550781 34.195313 40.222656 35.710938 39.558594 36.953125 C 38.875 38.238281 37.972656 39.253906 36.832031 40.054688 C 35.664063 40.875 34.324219 41.480469 32.800781 41.882813 C 31.257813 42.289063 29.6875 42.503906 28.058594 42.503906 L 10.507813 42.503906 Z M 17.734375 10.789063 C 17.261719 10.878906 16.917969 11.296875 16.925781 11.78125 L 16.925781 20.742188 C 16.925781 21.285156 17.371094 21.730469 17.917969 21.730469 L 26.445313 21.730469 C 28.101563 21.730469 29.558594 21.324219 30.722656 20.460938 C 31.976563 19.535156 32.582031 17.988281 32.582031 16.183594 C 32.582031 15.171875 32.394531 14.25 31.964844 13.484375 C 31.5625 12.78125 31.003906 12.191406 30.320313 11.78125 C 29.667969 11.390625 28.949219 11.148438 28.148438 11.003906 C 27.394531 10.871094 26.601563 10.789063 25.792969 10.789063 L 17.917969 10.789063 C 17.886719 10.789063 17.855469 10.789063 17.824219 10.789063 C 17.796875 10.789063 17.765625 10.789063 17.734375 10.789063 Z M 18.910156 12.773438 L 25.792969 12.773438 C 26.480469 12.773438 27.148438 12.851563 27.777344 12.957031 C 27.789063 12.957031 27.796875 12.957031 27.808594 12.957031 C 28.390625 13.066406 28.882813 13.238281 29.296875 13.484375 C 29.683594 13.71875 29.984375 14.042969 30.226563 14.476563 C 30.441406 14.859375 30.597656 15.410156 30.597656 16.183594 C 30.597656 17.59375 30.222656 18.34375 29.542969 18.847656 C 28.777344 19.417969 27.789063 19.75 26.445313 19.75 L 18.910156 19.75 Z M 17.734375 25.484375 C 17.261719 25.574219 16.917969 25.992188 16.925781 26.476563 L 16.925781 36.953125 C 16.925781 37.5 17.371094 37.945313 17.917969 37.945313 L 26.910156 37.945313 C 27.796875 37.945313 28.660156 37.871094 29.484375 37.699219 C 30.335938 37.515625 31.125 37.1875 31.808594 36.738281 C 32.519531 36.269531 33.101563 35.621094 33.511719 34.847656 C 33.949219 34.015625 34.132813 33.042969 34.132813 31.933594 C 34.132813 29.78125 33.488281 28.007813 32.085938 26.941406 C 30.769531 25.945313 29.066406 25.484375 27.097656 25.484375 L 17.917969 25.484375 C 17.855469 25.476563 17.796875 25.476563 17.734375 25.484375 Z M 18.910156 27.46875 L 27.097656 27.46875 C 28.765625 27.46875 29.980469 27.839844 30.878906 28.523438 C 31.6875 29.132813 32.148438 30.15625 32.148438 31.933594 C 32.148438 32.820313 31.984375 33.460938 31.746094 33.917969 C 31.476563 34.425781 31.152344 34.8125 30.722656 35.09375 C 30.261719 35.398438 29.726563 35.605469 29.078125 35.746094 C 28.402344 35.886719 27.664063 35.960938 26.910156 35.960938 L 18.910156 35.960938 Z "/>
</g>
</svg>
