<?xml version="1.0" encoding="UTF-8"?>
<svg xmlns="http://www.w3.org/2000/svg" xmlns:xlink="http://www.w3.org/1999/xlink" width="50pt" height="50pt" viewBox="0 0 50 50" version="1.1">
<g id="surface1">
<path style=" stroke:none;fill-rule:nonzero;fill:#5B5B5B;fill-opacity:1;" d="M 40.628906 25.714844 C 39.699219 24.359375 38.421875 23.289063 36.824219 22.523438 C 37.8125 21.824219 38.617188 21.019531 39.238281 20.113281 C 40.222656 18.667969 40.722656 16.855469 40.722656 14.734375 C 40.722656 12.804688 40.386719 11.144531 39.738281 9.800781 C 39.074219 8.433594 38.125 7.320313 36.914063 6.496094 C 35.742188 5.691406 34.328125 5.109375 32.703125 4.761719 C 31.140625 4.429688 29.394531 4.257813 27.515625 4.257813 L 9.515625 4.257813 C 8.96875 4.257813 8.523438 4.699219 8.523438 5.25 L 8.523438 43.5 C 8.523438 44.046875 8.96875 44.492188 9.515625 44.492188 L 28.050781 44.492188 C 29.84375 44.492188 31.613281 44.261719 33.3125 43.8125 C 35.042969 43.355469 36.609375 42.640625 37.96875 41.6875 C 39.359375 40.707031 40.480469 39.425781 41.300781 37.882813 C 42.125 36.339844 42.542969 34.492188 42.542969 32.414063 C 42.542969 29.828125 41.894531 27.578125 40.628906 25.714844 Z M 17.921875 11.785156 L 25.800781 11.785156 C 26.550781 11.785156 27.273438 11.847656 27.972656 11.96875 C 28.664063 12.097656 29.28125 12.324219 29.820313 12.640625 C 30.355469 12.960938 30.78125 13.414063 31.101563 13.980469 C 31.425781 14.554688 31.585938 15.289063 31.585938 16.179688 C 31.585938 17.789063 31.101563 18.945313 30.136719 19.660156 C 29.171875 20.375 27.941406 20.734375 26.441406 20.734375 L 17.921875 20.734375 Z M 32.628906 34.394531 C 32.292969 35.035156 31.835938 35.542969 31.265625 35.917969 C 30.691406 36.296875 30.03125 36.5625 29.28125 36.726563 C 28.535156 36.882813 27.746094 36.964844 26.925781 36.964844 L 17.921875 36.964844 L 17.921875 26.464844 L 27.085938 26.464844 C 28.910156 26.464844 30.371094 26.886719 31.480469 27.722656 C 32.585938 28.566406 33.140625 29.96875 33.140625 31.933594 C 33.136719 32.929688 32.964844 33.75 32.628906 34.394531 Z "/>
</g>
</svg>
