<?xml version="1.0" encoding="UTF-8"?>
<svg xmlns="http://www.w3.org/2000/svg" xmlns:xlink="http://www.w3.org/1999/xlink" width="50pt" height="50pt" viewBox="0 0 50 50" version="1.1">
<g id="surface1">
<path style=" stroke:none;fill-rule:nonzero;fill:#5B5B5B;fill-opacity:1;" d="M 7.8125 3.125 C 6.949219 3.125 6.25 3.824219 6.25 4.6875 C 6.25 5.550781 6.949219 6.25 7.8125 6.25 C 8.675781 6.25 9.375 5.550781 9.375 4.6875 C 9.375 3.824219 8.675781 3.125 7.8125 3.125 Z M 14.0625 3.125 C 13.199219 3.125 12.5 3.824219 12.5 4.6875 C 12.5 5.550781 13.199219 6.25 14.0625 6.25 C 14.925781 6.25 15.625 5.550781 15.625 4.6875 C 15.625 3.824219 14.925781 3.125 14.0625 3.125 Z M 20.3125 3.125 C 19.449219 3.125 18.75 3.824219 18.75 4.6875 C 18.75 5.550781 19.449219 6.25 20.3125 6.25 C 21.175781 6.25 21.875 5.550781 21.875 4.6875 C 21.875 3.824219 21.175781 3.125 20.3125 3.125 Z M 25 3.125 L 25 6.25 C 33.648438 6.25 40.625 13.226563 40.625 21.875 L 43.75 21.875 C 43.75 11.535156 35.339844 3.125 25 3.125 Z M 4.6875 6.25 C 3.824219 6.25 3.125 6.949219 3.125 7.8125 C 3.125 8.675781 3.824219 9.375 4.6875 9.375 C 5.550781 9.375 6.25 8.675781 6.25 7.8125 C 6.25 6.949219 5.550781 6.25 4.6875 6.25 Z M 4.6875 12.5 C 3.824219 12.5 3.125 13.199219 3.125 14.0625 C 3.125 14.925781 3.824219 15.625 4.6875 15.625 C 5.550781 15.625 6.25 14.925781 6.25 14.0625 C 6.25 13.199219 5.550781 12.5 4.6875 12.5 Z M 4.6875 18.75 C 3.824219 18.75 3.125 19.449219 3.125 20.3125 C 3.125 21.175781 3.824219 21.875 4.6875 21.875 C 5.550781 21.875 6.25 21.175781 6.25 20.3125 C 6.25 19.449219 5.550781 18.75 4.6875 18.75 Z M 4.6875 25 C 3.824219 25 3.125 25.699219 3.125 26.5625 C 3.125 27.425781 3.824219 28.125 4.6875 28.125 C 5.550781 28.125 6.25 27.425781 6.25 26.5625 C 6.25 25.699219 5.550781 25 4.6875 25 Z M 42.1875 25 C 41.324219 25 40.625 25.699219 40.625 26.5625 C 40.625 27.425781 41.324219 28.125 42.1875 28.125 C 43.050781 28.125 43.75 27.425781 43.75 26.5625 C 43.75 25.699219 43.050781 25 42.1875 25 Z M 4.6875 31.25 C 3.824219 31.25 3.125 31.949219 3.125 32.8125 C 3.125 33.675781 3.824219 34.375 4.6875 34.375 C 5.550781 34.375 6.25 33.675781 6.25 32.8125 C 6.25 31.949219 5.550781 31.25 4.6875 31.25 Z M 42.1875 31.25 C 41.324219 31.25 40.625 31.949219 40.625 32.8125 C 40.625 33.675781 41.324219 34.375 42.1875 34.375 C 43.050781 34.375 43.75 33.675781 43.75 32.8125 C 43.75 31.949219 43.050781 31.25 42.1875 31.25 Z M 4.6875 37.5 C 3.824219 37.5 3.125 38.199219 3.125 39.0625 C 3.125 39.925781 3.824219 40.625 4.6875 40.625 C 5.550781 40.625 6.25 39.925781 6.25 39.0625 C 6.25 38.199219 5.550781 37.5 4.6875 37.5 Z M 42.1875 37.5 C 41.324219 37.5 40.625 38.199219 40.625 39.0625 C 40.625 39.925781 41.324219 40.625 42.1875 40.625 C 43.050781 40.625 43.75 39.925781 43.75 39.0625 C 43.75 38.199219 43.050781 37.5 42.1875 37.5 Z M 7.8125 40.625 C 6.949219 40.625 6.25 41.324219 6.25 42.1875 C 6.25 43.050781 6.949219 43.75 7.8125 43.75 C 8.675781 43.75 9.375 43.050781 9.375 42.1875 C 9.375 41.324219 8.675781 40.625 7.8125 40.625 Z M 14.0625 40.625 C 13.199219 40.625 12.5 41.324219 12.5 42.1875 C 12.5 43.050781 13.199219 43.75 14.0625 43.75 C 14.925781 43.75 15.625 43.050781 15.625 42.1875 C 15.625 41.324219 14.925781 40.625 14.0625 40.625 Z M 20.3125 40.625 C 19.449219 40.625 18.75 41.324219 18.75 42.1875 C 18.75 43.050781 19.449219 43.75 20.3125 43.75 C 21.175781 43.75 21.875 43.050781 21.875 42.1875 C 21.875 41.324219 21.175781 40.625 20.3125 40.625 Z M 26.5625 40.625 C 25.699219 40.625 25 41.324219 25 42.1875 C 25 43.050781 25.699219 43.75 26.5625 43.75 C 27.425781 43.75 28.125 43.050781 28.125 42.1875 C 28.125 41.324219 27.425781 40.625 26.5625 40.625 Z M 32.8125 40.625 C 31.949219 40.625 31.25 41.324219 31.25 42.1875 C 31.25 43.050781 31.949219 43.75 32.8125 43.75 C 33.675781 43.75 34.375 43.050781 34.375 42.1875 C 34.375 41.324219 33.675781 40.625 32.8125 40.625 Z M 39.0625 40.625 C 38.199219 40.625 37.5 41.324219 37.5 42.1875 C 37.5 43.050781 38.199219 43.75 39.0625 43.75 C 39.925781 43.75 40.625 43.050781 40.625 42.1875 C 40.625 41.324219 39.925781 40.625 39.0625 40.625 Z "/>
</g>
</svg>
