<?xml version="1.0" encoding="UTF-8"?>
<svg xmlns="http://www.w3.org/2000/svg" xmlns:xlink="http://www.w3.org/1999/xlink" width="50pt" height="50pt" viewBox="0 0 50 50" version="1.1">
<g id="surface1">
<path style=" stroke:none;fill-rule:nonzero;fill:#5B5B5B;fill-opacity:1;" d="M 4 1 C 1.792969 1 0 2.792969 0 5 L 0 43 C 0 45.207031 1.792969 47 4 47 L 25 47 L 25 39 L 5 39 L 5 6 L 31 6 L 31 14 L 36 14 L 36 5 C 36 2.792969 34.207031 1 32 1 Z M 29 15 C 27.347656 15 26 16.347656 26 18 L 26 47 C 26 48.652344 27.347656 50 29 50 L 47 50 C 48.652344 50 50 48.652344 50 47 L 50 18 C 50 16.347656 48.652344 15 47 15 Z M 31 20 L 45 20 L 45 42 L 31 42 Z M 18 41 C 18.828125 41 19.5 41.671875 19.5 42.5 C 19.5 43.328125 18.828125 44 18 44 C 17.171875 44 16.5 43.328125 16.5 42.5 C 16.5 41.671875 17.171875 41 18 41 Z M 38 44 C 38.828125 44 39.5 44.671875 39.5 45.5 C 39.5 46.328125 38.828125 47 38 47 C 37.171875 47 36.5 46.328125 36.5 45.5 C 36.5 44.671875 37.171875 44 38 44 Z "/>
</g>
</svg>
