<?xml version="1.0" encoding="utf-8"?>
<svg xmlns="http://www.w3.org/2000/svg" width="50" height="50" viewBox="0 0 50 50" fill="#000000"><path style="text-indent:0;text-align:start;line-height:normal;text-transform:none;block-progression:tb;-inkscape-font-specification:Bitstream Vera Sans" d="M 42.46875 1 C 40.796859 1.0001147 39.14502 1.6368187 37.875 2.90625 L 31.3125 9.4375 L 31.15625 9.28125 C 30.725334 8.8503342 30.165845 8.65625 29.59375 8.65625 C 29.021655 8.65625 28.430916 8.8503342 28 9.28125 L 25.40625 11.90625 C 24.544418 12.768082 24.544418 14.200668 25.40625 15.0625 L 26.4375 16.0625 L 8.375 34.125 C 7.0337163 35.466284 6.2532865 36.462816 5.78125 37.3125 C 5.3092135 38.162184 5.1710014 38.89493 5.0625 39.4375 C 4.9539986 39.98007 4.8729835 40.353512 4.53125 40.96875 C 4.1895165 41.583988 3.5439682 42.424539 2.28125 43.6875 A 1.0001 1.0001 0 0 0 2.28125 45.09375 L 4.90625 47.71875 A 1.0001 1.0001 0 0 0 6.3125 47.71875 C 7.5752163 46.456034 8.4161375 45.810485 9.03125 45.46875 C 9.6463625 45.127015 10.019909 45.046068 10.5625 44.9375 C 11.105091 44.828932 11.837729 44.690917 12.6875 44.21875 C 13.537271 43.746583 14.533474 42.966526 15.875 41.625 L 33.9375 23.5625 L 34.9375 24.59375 C 35.799332 25.455582 37.231918 25.455582 38.09375 24.59375 L 40.71875 22 C 41.58009 21.13866 41.578894 19.70569 40.71875 18.84375 L 40.5625 18.6875 L 47.09375 12.125 C 49.632988 9.5857624 49.632722 5.446399 47.09375 2.90625 C 45.824121 1.6360323 44.140641 0.99988534 42.46875 1 z M 42.5 2.96875 C 43.657725 2.9686966 44.800129 3.4247177 45.6875 4.3125 C 47.462528 6.088351 47.462262 8.9439876 45.6875 10.71875 L 39.125 17.25 L 32.75 10.875 L 39.28125 4.3125 C 40.16923 3.4249313 41.342275 2.9688034 42.5 2.96875 z M 29.59375 10.65625 C 29.655645 10.65625 29.701916 10.670665 29.75 10.71875 L 39.28125 20.25 C 39.37911 20.34806 39.37791 20.49709 39.28125 20.59375 L 36.6875 23.1875 C 36.59133 23.28367 36.471168 23.28367 36.375 23.1875 L 34.8125 21.65625 A 1.0054782 1.0054782 0 0 0 34.46875 21.3125 L 28.78125 15.59375 A 1.0001 1.0001 0 0 0 28.34375 15.15625 L 26.8125 13.625 C 26.71633 13.52883 26.71633 13.408668 26.8125 13.3125 L 29.40625 10.71875 C 29.454335 10.670665 29.531855 10.65625 29.59375 10.65625 z M 27.84375 17.5 L 32.5 22.15625 L 14.4375 40.21875 C 13.174526 41.481724 12.334011 42.126886 11.71875 42.46875 C 11.103489 42.810614 10.730034 42.860193 10.1875 42.96875 C 9.6449665 43.077307 8.9121687 43.246704 8.0625 43.71875 C 7.4219226 44.074632 6.5772001 44.845135 5.6875 45.65625 L 4.34375 44.3125 C 5.1548604 43.422631 5.92539 42.578171 6.28125 41.9375 C 6.7532665 41.087707 6.9227514 40.355055 7.03125 39.8125 C 7.1397486 39.269945 7.1895365 38.896347 7.53125 38.28125 C 7.8729635 37.666153 8.5185337 36.825216 9.78125 35.5625 L 27.84375 17.5 z" color="#000" overflow="visible" enable-background="accumulate" font-family="Bitstream Vera Sans" fill="#000000"/></svg>
