<?xml version="1.0" encoding="UTF-8"?>
<svg xmlns="http://www.w3.org/2000/svg" xmlns:xlink="http://www.w3.org/1999/xlink" width="50pt" height="50pt" viewBox="0 0 50 50" version="1.1">
<g id="surface1">
<path style=" stroke:none;fill-rule:nonzero;fill:#5B5B5B;fill-opacity:1;" d="M 25.761719 4.246094 C 25.328125 4.292969 24.976563 4.625 24.894531 5.054688 L 16.863281 43.308594 C 16.8125 43.597656 16.882813 43.894531 17.070313 44.125 C 17.257813 44.347656 17.53125 44.484375 17.824219 44.488281 L 22.910156 44.488281 C 23.382813 44.5 23.796875 44.175781 23.902344 43.710938 L 31.933594 5.457031 C 31.996094 5.160156 31.929688 4.855469 31.742188 4.625 C 31.550781 4.386719 31.269531 4.25 30.972656 4.246094 L 25.855469 4.246094 C 25.824219 4.246094 25.792969 4.246094 25.761719 4.246094 Z M 26.691406 6.230469 L 29.730469 6.230469 L 22.105469 42.503906 L 19.066406 42.503906 Z "/>
</g>
</svg>
