<?xml version="1.0" encoding="UTF-8"?>
<svg xmlns="http://www.w3.org/2000/svg" xmlns:xlink="http://www.w3.org/1999/xlink" width="52pt" height="52pt" viewBox="0 0 52 52" version="1.1">
<g id="surface1">
<path style=" stroke:none;fill-rule:nonzero;fill:#5B5B5B;fill-opacity:1;" d="M 32 0 C 27.578125 0 23.757813 1.835938 21.375 4.8125 C 18.992188 7.789063 18 11.648438 18 15.8125 L 18 18 L 24 18 L 24 15.8125 C 24 12.65625 24.78125 10.171875 26.0625 8.5625 C 27.34375 6.953125 29.085938 6 32 6 C 34.921875 6 36.65625 6.898438 37.9375 8.5 C 39.21875 10.101563 40 12.617188 40 15.8125 L 40 18 L 46 18 L 46 15.8125 C 46 11.625 44.945313 7.726563 42.5625 4.75 C 40.179688 1.773438 36.414063 0 32 0 Z M 18 20 C 14.6875 20 12 22.6875 12 26 L 12 46 C 12 49.3125 14.6875 52 18 52 L 46 52 C 49.3125 52 52 49.3125 52 46 L 52 26 C 52 22.6875 49.3125 20 46 20 Z M 32 30 C 34.210938 30 36 31.789063 36 34 C 36 35.476563 35.195313 36.742188 34 37.4375 L 34 42 C 34 43.101563 33.101563 44 32 44 C 30.898438 44 30 43.101563 30 42 L 30 37.4375 C 28.804688 36.742188 28 35.476563 28 34 C 28 31.789063 29.789063 30 32 30 Z "/>
</g>
</svg>
