<?xml version="1.0" encoding="utf-8"?>
<svg xmlns="http://www.w3.org/2000/svg" viewBox="0 0 50 50" enable-background="new 0 0 50 50" fill="#000000"><path style="text-indent:0;text-align:start;line-height:normal;text-transform:none;block-progression:tb;-inkscape-font-specification:Bitstream Vera Sans" d="M 25 0 C 13.417916 0 4 9.4179165 4 21 L 4 42.6875 A 1.001098 1.001098 0 0 0 4 43.28125 L 4 49 A 0.99209918 0.99209918 0 0 0 5 50 L 15 50 A 0.99209918 0.99209918 0 0 0 16 49 L 16 43.15625 A 1 1 0 0 0 16 42.875 L 16 21 C 16 16.013084 20.013084 12 25 12 C 29.986916 12 34 16.013084 34 21 L 34 42.6875 A 1.001098 1.001098 0 0 0 34 43.28125 L 34 49 A 0.99209918 0.99209918 0 0 0 35 50 L 45 50 A 0.99209918 0.99209918 0 0 0 46 49 L 46 43.15625 A 1 1 0 0 0 46 42.875 L 46 21 C 46 9.4179165 36.582084 0 25 0 z M 25 2 C 35.509916 2 44 10.490084 44 21 L 44 42 L 36 42 L 36 21 C 36 14.940916 31.059084 10 25 10 C 18.940916 10 14 14.940916 14 21 L 14 42 L 6 42 L 6 21 C 6 10.490084 14.490084 2 25 2 z M 6 44 L 14 44 L 14 48 L 6 48 L 6 44 z M 36 44 L 44 44 L 44 48 L 36 48 L 36 44 z" color="#000" overflow="visible" enable-background="accumulate" font-family="Bitstream Vera Sans" fill="#000000"/></svg>
