<?xml version="1.0" encoding="UTF-8"?>
<svg xmlns="http://www.w3.org/2000/svg" xmlns:xlink="http://www.w3.org/1999/xlink" width="50pt" height="50pt" viewBox="0 0 50 50" version="1.1">
<g id="surface1">
<path style=" stroke:none;fill-rule:nonzero;fill:#5B5B5B;fill-opacity:1;" d="M 24.785156 13.890625 C 24.527344 13.894531 24.28125 13.996094 24.101563 14.179688 L 4.257813 34.019531 C 4 34.269531 3.894531 34.640625 3.988281 34.984375 C 4.078125 35.335938 4.347656 35.605469 4.695313 35.695313 C 5.042969 35.789063 5.414063 35.683594 5.660156 35.421875 L 24.800781 16.285156 L 43.941406 35.421875 C 44.191406 35.683594 44.5625 35.789063 44.90625 35.695313 C 45.253906 35.605469 45.527344 35.335938 45.617188 34.984375 C 45.707031 34.640625 45.605469 34.269531 45.34375 34.019531 L 25.503906 14.179688 C 25.3125 13.988281 25.054688 13.886719 24.785156 13.890625 Z "/>
</g>
</svg>
