<?xml version="1.0" encoding="UTF-8"?>
<svg xmlns="http://www.w3.org/2000/svg" xmlns:xlink="http://www.w3.org/1999/xlink" width="50pt" height="50pt" viewBox="0 0 50 50" version="1.1">
<g id="surface1">
<path style=" stroke:none;fill-rule:nonzero;fill:#5B5B5B;fill-opacity:1;" d="M 25.980469 3.9375 C 25.917969 3.941406 25.855469 3.953125 25.792969 3.96875 C 25.421875 4.035156 25.125 4.304688 25.019531 4.664063 C 24.914063 5.03125 25.023438 5.417969 25.296875 5.671875 L 26.011719 6.386719 C 21.972656 10.925781 20.4375 17.355469 20.058594 19.253906 L 13.113281 22.351563 L 12.988281 22.226563 C 12.785156 22.007813 12.484375 21.894531 12.183594 21.917969 C 11.796875 21.957031 11.46875 22.214844 11.34375 22.582031 C 11.214844 22.949219 11.316406 23.355469 11.59375 23.625 L 25.980469 38.007813 C 26.21875 38.304688 26.605469 38.4375 26.976563 38.351563 C 27.34375 38.269531 27.632813 37.976563 27.71875 37.609375 C 27.804688 37.238281 27.667969 36.855469 27.375 36.613281 L 27.035156 36.273438 L 30.132813 29.421875 C 32.3125 29.132813 38.742188 27.492188 43.214844 23.59375 L 43.929688 24.304688 C 44.3125 24.699219 44.945313 24.703125 45.339844 24.320313 C 45.734375 23.9375 45.738281 23.304688 45.355469 22.910156 L 26.691406 4.246094 C 26.507813 4.050781 26.25 3.941406 25.980469 3.9375 Z M 17.359375 30.847656 L 4.246094 43.929688 L 5.671875 45.355469 L 18.757813 32.242188 Z "/>
</g>
</svg>
