<?xml version="1.0" encoding="UTF-8"?>
<svg xmlns="http://www.w3.org/2000/svg" xmlns:xlink="http://www.w3.org/1999/xlink" width="64pt" height="64pt" viewBox="0 0 64 64" version="1.1">
<g id="surface1">
<path style=" stroke:none;fill-rule:nonzero;fill:#5B5B5B;fill-opacity:1;" d="M 8 8 L 8 56 L 56 56 L 56 8 Z M 12 12 L 52 12 L 52 52 L 47.875 52 C 47.1875 46.59375 43.765625 42.023438 39.0625 39.6875 C 42.046875 37.5 44 33.96875 44 30 C 44 23.398438 38.601563 18 32 18 C 25.398438 18 20 23.398438 20 30 C 20 33.96875 21.953125 37.5 24.9375 39.6875 C 20.234375 42.023438 16.8125 46.59375 16.125 52 L 12 52 Z M 32 22 C 36.445313 22 40 25.554688 40 30 C 40 34.445313 36.445313 38 32 38 C 27.554688 38 24 34.445313 24 30 C 24 25.554688 27.554688 22 32 22 Z M 32 42 C 37.96875 42 42.867188 46.304688 43.8125 52 L 20.1875 52 C 21.132813 46.304688 26.03125 42 32 42 Z "/>
</g>
</svg>
