<?xml version="1.0" encoding="UTF-8"?>
<svg xmlns="http://www.w3.org/2000/svg" xmlns:xlink="http://www.w3.org/1999/xlink" width="50pt" height="50pt" viewBox="0 0 50 50" version="1.1">
<g id="surface1">
<path style=" stroke:none;fill-rule:nonzero;fill:#5B5B5B;fill-opacity:1;" d="M 9 4 C 6.253906 4 4 6.253906 4 9 L 4 41 C 4 43.746094 6.253906 46 9 46 L 41 46 C 43.746094 46 46 43.746094 46 41 L 46 9 C 46 6.253906 43.746094 4 41 4 Z M 9 6 L 41 6 C 42.65625 6 44 7.34375 44 9 L 44 41 C 44 42.355469 43.09375 43.488281 41.859375 43.859375 C 41.558594 42.261719 40.839844 40.976563 39.886719 40.007813 C 38.722656 38.828125 37.277344 38.082031 35.871094 37.472656 C 34.460938 36.863281 33.074219 36.390625 32.015625 35.863281 C 30.992188 35.355469 30.386719 34.828125 30.125 34.222656 C 30.066406 33.195313 30.054688 32.351563 30.054688 31.4375 C 30.457031 31.035156 30.761719 30.570313 31.058594 29.960938 C 31.40625 29.238281 31.644531 28.363281 31.796875 27.480469 C 32.574219 27.035156 33.214844 26.214844 33.363281 24.703125 L 33.367188 24.699219 L 33.367188 24.691406 C 33.449219 23.800781 33.171875 23.183594 32.824219 22.699219 C 33.246094 21.34375 33.75 19.234375 33.570313 17.027344 C 33.472656 15.800781 33.15625 14.558594 32.394531 13.527344 C 31.71875 12.601563 30.617188 11.964844 29.261719 11.675781 C 28.867188 11.140625 28.34375 10.710938 27.703125 10.460938 C 26.894531 10.140625 25.949219 10 24.910156 10 L 24.886719 10 C 20.914063 10.09375 18.328125 11.746094 17.21875 14.25 C 16.171875 16.621094 16.394531 19.539063 17.125 22.554688 C 16.734375 23.039063 16.402344 23.699219 16.5625 24.652344 C 16.71875 26.175781 17.375 26.972656 18.125 27.394531 C 18.285156 28.261719 18.535156 29.125 18.90625 29.851563 C 19.125 30.28125 19.359375 30.667969 19.605469 30.996094 C 19.699219 31.125 19.84375 31.210938 19.945313 31.324219 C 19.957031 32.339844 19.996094 33.136719 19.875 34.148438 C 19.632813 34.777344 19.035156 35.308594 18.015625 35.828125 C 16.964844 36.367188 15.578125 36.847656 14.164063 37.460938 C 12.75 38.074219 11.296875 38.824219 10.128906 40.003906 C 9.171875 40.972656 8.445313 42.257813 8.140625 43.859375 C 6.90625 43.488281 6 42.355469 6 41 L 6 9 C 6 7.34375 7.34375 6 9 6 Z M 24.921875 12 C 25.765625 12.003906 26.480469 12.128906 26.96875 12.324219 C 27.460938 12.515625 27.691406 12.75 27.777344 12.9375 L 28.003906 13.441406 L 28.558594 13.515625 C 29.703125 13.664063 30.332031 14.09375 30.785156 14.710938 C 31.238281 15.328125 31.496094 16.203125 31.578125 17.1875 C 31.738281 19.164063 31.164063 21.523438 30.796875 22.574219 L 30.542969 23.304688 L 31.1875 23.734375 C 31.117188 23.6875 31.433594 23.863281 31.375 24.507813 C 31.375 24.507813 31.375 24.511719 31.375 24.511719 C 31.21875 25.992188 30.585938 25.925781 30.933594 25.925781 L 30.03125 25.925781 L 29.9375 26.828125 C 29.863281 27.558594 29.585938 28.414063 29.257813 29.082031 C 28.929688 29.753906 28.394531 30.261719 28.550781 30.171875 L 28.046875 30.460938 L 28.046875 31.042969 C 28.046875 32.207031 28.042969 33.226563 28.136719 34.597656 L 28.148438 34.75 L 28.203125 34.894531 C 28.722656 36.230469 29.882813 37.035156 31.125 37.65625 C 32.367188 38.273438 33.765625 38.742188 35.078125 39.308594 C 36.386719 39.875 37.589844 40.527344 38.457031 41.410156 C 39.128906 42.089844 39.621094 42.894531 39.859375 44 L 10.140625 44 C 10.382813 42.898438 10.878906 42.09375 11.550781 41.410156 C 12.425781 40.527344 13.640625 39.871094 14.957031 39.296875 C 16.277344 38.722656 17.683594 38.246094 18.921875 37.609375 C 20.160156 36.976563 21.320313 36.144531 21.808594 34.78125 L 21.84375 34.679688 L 21.855469 34.574219 C 22.050781 33.128906 21.953125 32.160156 21.953125 30.953125 L 21.953125 30.371094 L 21.449219 30.082031 C 21.535156 30.132813 21.363281 30.011719 21.207031 29.800781 C 21.050781 29.589844 20.863281 29.285156 20.6875 28.941406 C 20.339844 28.257813 20.042969 27.398438 19.96875 26.734375 L 19.875 25.839844 L 19.015625 25.839844 C 18.953125 25.8125 18.648438 25.609375 18.535156 24.417969 L 18.53125 24.375 L 18.523438 24.332031 C 18.417969 23.757813 18.707031 23.652344 18.71875 23.644531 L 19.316406 23.25 L 19.136719 22.558594 C 18.355469 19.582031 18.246094 16.875 19.046875 15.0625 C 19.847656 13.253906 21.441406 12.089844 24.921875 12 Z "/>
</g>
</svg>
