<?xml version="1.0" encoding="UTF-8"?>
<svg xmlns="http://www.w3.org/2000/svg" xmlns:xlink="http://www.w3.org/1999/xlink" width="50pt" height="50pt" viewBox="0 0 50 50" version="1.1">
<g id="surface1">
<path style=" stroke:none;fill-rule:nonzero;fill:#5B5B5B;fill-opacity:1;" d="M 41 4 L 9 4 C 6.238281 4 4 6.238281 4 9 L 4 41 C 4 43.03125 5.21875 44.789063 6.960938 45.570313 C 7.578125 45.839844 8.269531 46 9 46 L 41 46 C 41.730469 46 42.421875 45.839844 43.039063 45.570313 C 44.78125 44.789063 46 43.03125 46 41 L 46 9 C 46 6.238281 43.761719 4 41 4 Z M 20.871094 34.441406 C 21.039063 33.101563 20.960938 32.210938 20.960938 30.949219 C 20.328125 30.589844 19.160156 28.539063 18.980469 26.839844 C 18.53125 26.839844 17.71875 26.390625 17.539063 24.511719 C 17.359375 23.53125 17.898438 22.988281 18.171875 22.808594 C 16.550781 16.640625 17.449219 11.179688 24.910156 11 C 26.800781 11 28.238281 11.539063 28.691406 12.519531 C 34.171875 13.238281 32.550781 20.570313 31.738281 22.898438 C 32.011719 23.078125 32.460938 23.621094 32.371094 24.601563 C 32.191406 26.390625 31.378906 26.929688 30.929688 26.929688 C 30.75 28.71875 29.671875 30.679688 29.039063 31.039063 C 29.039063 32.210938 29.039063 33.191406 29.128906 34.53125 C 30.589844 38.289063 39.648438 37.480469 40.871094 44 L 9.128906 44 C 10.359375 37.480469 19.5 38.28125 20.871094 34.441406 Z "/>
</g>
</svg>
