<?xml version="1.0" encoding="utf-8"?>
<svg xmlns="http://www.w3.org/2000/svg" viewBox="0 0 50 50" enable-background="new 0 0 50 50" fill="#000000"><path style="text-indent:0;text-align:start;line-height:normal;text-transform:none;block-progression:tb;-inkscape-font-specification:Bitstream Vera Sans" d="M 7 7 C 5.3545455 7 4 8.3545455 4 10 L 4 40 C 4 41.645455 5.3545455 43 7 43 L 43 43 C 44.645455 43 46 41.645455 46 40 L 46 10 C 46 8.3545455 44.645455 7 43 7 L 7 7 z M 7 9 L 43 9 C 43.554545 9 44 9.4454545 44 10 L 44 40 C 44 40.554545 43.554545 41 43 41 L 7 41 C 6.4454545 41 6 40.554545 6 40 L 6 10 C 6 9.4454545 6.4454545 9 7 9 z" color="#000" overflow="visible" enable-background="accumulate" font-family="Bitstream Vera Sans" fill="#000000"/></svg>
