<?xml version="1.0" encoding="utf-8"?>
<!-- Generator: Adobe Illustrator 22.1.0, SVG Export Plug-In . SVG Version: 6.00 Build 0)  -->
<svg version="1.1" id="Layer_1" xmlns="http://www.w3.org/2000/svg" xmlns:xlink="http://www.w3.org/1999/xlink" x="0px" y="0px"
	 viewBox="0 0 50 50" style="enable-background:new 0 0 50 50;" xml:space="preserve">
<style type="text/css">
	.st0{fill:#5B5B5B;}
</style>
<g id="surface1">
	<path class="st0" d="M17,14.8c-0.5,0-0.9,0.4-0.9,0.9v4.8h4.8c0.3,0,0.6-0.2,0.8-0.4c0.2-0.3,0.2-0.6,0-0.9
		c-0.2-0.3-0.4-0.4-0.8-0.4h-1.7c1.5-1.3,3.4-2.2,5.6-2.2c4.6,0,8.3,3.7,8.3,8.3c0,4.6-3.7,8.3-8.3,8.3c-4.6,0-8.3-3.7-8.3-8.3
		c0-0.3-0.2-0.6-0.4-0.8c-0.3-0.2-0.6-0.2-0.9,0c-0.3,0.2-0.4,0.4-0.4,0.8c0,5.5,4.5,10,10,10s10-4.5,10-10s-4.5-10-10-10
		c-2.7,0-5.2,1.1-7,2.8v-1.9c0-0.2-0.1-0.5-0.3-0.6C17.4,14.9,17.2,14.8,17,14.8z"/>
</g>
</svg>
