<?xml version="1.0" encoding="UTF-8"?>
<svg xmlns="http://www.w3.org/2000/svg" xmlns:xlink="http://www.w3.org/1999/xlink" width="50pt" height="50pt" viewBox="0 0 50 50" version="1.1">
<g id="surface1">
<path style=" stroke:none;fill-rule:nonzero;fill:#5B5B5B;fill-opacity:1;" d="M 9.734375 5.953125 C 9.261719 6.042969 8.921875 6.460938 8.929688 6.945313 L 8.929688 10.914063 C 8.929688 11.460938 9.375 11.90625 9.921875 11.90625 L 21.824219 11.90625 L 21.824219 24.800781 L 10.914063 24.800781 L 10.914063 26.785156 L 38.691406 26.785156 L 38.691406 24.800781 L 27.777344 24.800781 L 27.777344 11.90625 L 39.683594 11.90625 C 40.230469 11.90625 40.675781 11.460938 40.675781 10.914063 L 40.675781 6.945313 C 40.675781 6.398438 40.230469 5.953125 39.683594 5.953125 L 9.921875 5.953125 C 9.890625 5.953125 9.859375 5.953125 9.828125 5.953125 C 9.796875 5.953125 9.765625 5.953125 9.734375 5.953125 Z M 10.914063 7.9375 L 38.691406 7.9375 L 38.691406 9.921875 L 26.785156 9.921875 C 26.238281 9.921875 25.792969 10.367188 25.792969 10.914063 L 25.792969 24.800781 L 23.808594 24.800781 L 23.808594 10.914063 C 23.808594 10.367188 23.363281 9.921875 22.816406 9.921875 L 10.914063 9.921875 Z M 21.824219 27.777344 L 21.824219 42.660156 C 21.824219 43.207031 22.269531 43.652344 22.816406 43.652344 L 26.785156 43.652344 C 27.332031 43.652344 27.777344 43.207031 27.777344 42.660156 L 27.777344 27.777344 L 25.792969 27.777344 L 25.792969 41.667969 L 23.808594 41.667969 L 23.808594 27.777344 Z "/>
</g>
</svg>
