<?xml version="1.0" encoding="UTF-8"?>
<svg xmlns="http://www.w3.org/2000/svg" xmlns:xlink="http://www.w3.org/1999/xlink" width="50pt" height="50pt" viewBox="0 0 50 50" version="1.1">
<g id="surface1">
<path style=" stroke:none;fill-rule:nonzero;fill:#5B5B5B;fill-opacity:1;" d="M 22.816406 0 L 22.816406 4.066406 C 12.917969 5.007813 5.007813 12.917969 4.066406 22.816406 L 0 22.816406 L 0 26.785156 L 4.066406 26.785156 C 5.007813 36.6875 12.917969 44.597656 22.816406 45.539063 L 22.816406 49.601563 L 26.785156 49.601563 L 26.785156 45.539063 C 36.6875 44.597656 44.597656 36.6875 45.539063 26.785156 L 49.601563 26.785156 L 49.601563 22.816406 L 45.539063 22.816406 C 44.597656 12.917969 36.6875 5.007813 26.785156 4.066406 L 26.785156 0 Z M 22.816406 8.058594 L 22.816406 10.914063 L 26.785156 10.914063 L 26.785156 8.058594 C 34.527344 8.964844 40.640625 15.074219 41.542969 22.816406 L 38.691406 22.816406 L 38.691406 26.785156 L 41.542969 26.785156 C 40.640625 34.527344 34.527344 40.640625 26.785156 41.542969 L 26.785156 38.691406 L 22.816406 38.691406 L 22.816406 41.542969 C 15.074219 40.640625 8.964844 34.527344 8.058594 26.785156 L 10.914063 26.785156 L 10.914063 22.816406 L 8.058594 22.816406 C 8.964844 15.074219 15.074219 8.964844 22.816406 8.058594 Z "/>
</g>
</svg>
