<?xml version="1.0" encoding="UTF-8"?>
<svg xmlns="http://www.w3.org/2000/svg" xmlns:xlink="http://www.w3.org/1999/xlink" width="50pt" height="50pt" viewBox="0 0 50 50" version="1.1">
<g id="surface1">
<path style=" stroke:none;fill-rule:nonzero;fill:#5B5B5B;fill-opacity:1;" d="M 23.808594 0 L 23.808594 3.992188 C 13.101563 4.496094 4.496094 13.101563 3.992188 23.808594 L 0 23.808594 L 0 25.792969 L 3.992188 25.792969 C 4.496094 36.5 13.101563 45.109375 23.808594 45.609375 L 23.808594 49.601563 L 25.792969 49.601563 L 25.792969 45.609375 C 36.5 45.109375 45.109375 36.5 45.609375 25.792969 L 49.601563 25.792969 L 49.601563 23.808594 L 45.609375 23.808594 C 45.109375 13.101563 36.5 4.496094 25.792969 3.992188 L 25.792969 0 Z M 23.808594 6.003906 L 23.808594 9.921875 L 25.792969 9.921875 L 25.792969 6.003906 C 35.417969 6.503906 43.101563 14.183594 43.601563 23.808594 L 39.683594 23.808594 L 39.683594 25.792969 L 43.601563 25.792969 C 43.101563 35.417969 35.417969 43.101563 25.792969 43.601563 L 25.792969 39.683594 L 23.808594 39.683594 L 23.808594 43.601563 C 14.183594 43.101563 6.503906 35.417969 6.003906 25.792969 L 9.921875 25.792969 L 9.921875 23.808594 L 6.003906 23.808594 C 6.503906 14.183594 14.183594 6.503906 23.808594 6.003906 Z "/>
</g>
</svg>
