<?xml version="1.0" encoding="utf-8"?>
<svg xmlns="http://www.w3.org/2000/svg" viewBox="0 0 50 50" fill="#000000"><path style="text-indent:0;text-align:start;line-height:normal;text-transform:none;block-progression:tb;-inkscape-font-specification:Bitstream Vera Sans" d="M 4.8125 7 A 1.0001 1.0001 0 0 0 4 8 L 4 22 L 3 22 A 1.0001 1.0001 0 0 0 2.90625 22 A 1.0001 1.0001 0 0 0 2 23 L 2 27 A 1.0001 1.0001 0 0 0 3 28 L 4 28 L 4 42 A 1.0001 1.0001 0 0 0 5 43 L 45 43 A 1.0001 1.0001 0 0 0 46 42 L 46 28 L 47 28 A 1.0001 1.0001 0 0 0 48 27 L 48 23 A 1.0001 1.0001 0 0 0 47 22 L 46 22 L 46 8 A 1.0001 1.0001 0 0 0 45 7 L 5 7 A 1.0001 1.0001 0 0 0 4.90625 7 A 1.0001 1.0001 0 0 0 4.8125 7 z M 6 9 L 44 9 L 44 22 L 43 22 A 1.0001 1.0001 0 0 0 42.90625 22 A 1.0001 1.0001 0 0 0 42 23 L 42 27 A 1.0001 1.0001 0 0 0 43 28 L 44 28 L 44 41 L 6 41 L 6 28 L 7 28 A 1.0001 1.0001 0 0 0 8 27 L 8 23 A 1.0001 1.0001 0 0 0 7 22 L 6 22 L 6 9 z M 14.8125 13 A 1.0001 1.0001 0 0 0 14 14 L 14 18 A 1.0001 1.0001 0 0 0 15 19 L 22 19 L 22 36 A 1.0001 1.0001 0 0 0 23 37 L 27 37 A 1.0001 1.0001 0 0 0 28 36 L 28 19 L 35 19 A 1.0001 1.0001 0 0 0 36 18 L 36 14 A 1.0001 1.0001 0 0 0 35 13 L 15 13 A 1.0001 1.0001 0 0 0 14.90625 13 A 1.0001 1.0001 0 0 0 14.8125 13 z M 16 15 L 34 15 L 34 17 L 27 17 A 1.0001 1.0001 0 0 0 26 18 L 26 35 L 24 35 L 24 18 A 1.0001 1.0001 0 0 0 23 17 L 16 17 L 16 15 z M 4 24 L 4.8125 24 L 5.21875 24 L 6 24 L 6 26 L 4 26 L 4 24 z M 44 24 L 46 24 L 46 26 L 45.1875 26 A 1.0001 1.0001 0 0 0 44.78125 26 L 44 26 L 44 24 z" color="#000" overflow="visible" font-family="Bitstream Vera Sans" fill="#000000"/></svg>
