
<svg xmlns="http://www.w3.org/2000/svg" version="1.1" xmlns:xlink="http://www.w3.org/1999/xlink" preserveAspectRatio="none" x="0px" y="0px" width="50px" height="50px" viewBox="0 0 50 50">
<g>
<path fill="#000000" stroke="none" d="
M 8 6
Q 7.9 5.1 7 5
L 2.9 5
Q 2.5 5.05 2.25 5.35 1.95 5.65 2 6
L 2 10
Q 2 11 3 11
L 7 11
Q 7.9 11 8 10
L 8 6
M 4 9
L 4 7 6 7 6 9 4 9 Z"/>
</g>

<g>
<path fill="#000000" stroke="none" d="
M 48 6
Q 47.9 5.1 47 5
L 42.9 5
Q 42.5 5.05 42.25 5.35 41.95 5.65 42 6
L 42 10
Q 42 11 43 11
L 47 11
Q 47.9 11 48 10
L 48 6
M 44 9
L 44 7 46 7 46 9 44 9 Z"/>
</g>

<g>
<path fill="#000000" stroke="none" d="
M 8 40
Q 7.9 39.1 7 39
L 2.9 39
Q 2.5 39.05 2.25 39.35 1.95 39.65 2 40
L 2 44
Q 2 45 3 45
L 7 45
Q 7.9 45 8 44
L 8 40
M 6 41
L 6 43 4 43 4 41 6 41 Z"/>
</g>

<g>
<path fill="#000000" stroke="none" d="
M 48 40
Q 47.9 39.1 47 39
L 42.9 39
Q 42.5 39.05 42.25 39.35 41.95 39.65 42 40
L 42 44
Q 42 45 43 45
L 47 45
Q 47.9 45 48 44
L 48 40
M 46 41
L 46 43 44 43 44 41 46 41 Z"/>
</g>

<g>
<path fill="#000000" stroke="none" d="
M 6 10.1
L 4 10.1 4 39.55 6 39.55 6 10.1
M 42.65 43
L 42.65 41 7.2 41 7.2 43 42.65 43
M 46 10.35
L 44 10.35 44 40 46 40 46 10.35
M 42.7 9
L 42.7 7 7.2 7 7.2 9 42.7 9
M 36 18
L 36 14
Q 35.9 13.1 35 13
L 14.8 13
Q 14.45 13.1 14.2 13.35 13.95 13.65 14 14
L 14 18
Q 14 19 15 19
L 22 19 22 36
Q 22 37 23 37
L 27 37
Q 27.9 37 28 36
L 28 19 35 19
Q 35.9 19 36 18
M 24 18
Q 23.9 17.1 23 17
L 16 17 16 15 34 15 34 17 27 17
Q 26 17.1 26 18
L 26 35 24 35 24 18 Z"/>
</g>
</svg>
