<?xml version="1.0" encoding="UTF-8"?>
<svg xmlns="http://www.w3.org/2000/svg" xmlns:xlink="http://www.w3.org/1999/xlink" width="50pt" height="50pt" viewBox="0 0 50 50" version="1.1">
<g id="surface1">
<path style=" stroke:none;fill-rule:nonzero;fill:#5B5B5B;fill-opacity:1;" d="M 9.734375 5.953125 C 9.261719 6.042969 8.921875 6.460938 8.929688 6.945313 L 8.929688 27.777344 C 8.929688 36.546875 16.03125 43.652344 24.800781 43.652344 C 33.570313 43.652344 40.675781 36.546875 40.675781 27.777344 L 40.675781 6.945313 C 40.675781 6.398438 40.230469 5.953125 39.683594 5.953125 L 35.714844 5.953125 C 35.167969 5.953125 34.722656 6.398438 34.722656 6.945313 L 34.722656 27.777344 C 34.722656 33.300781 30.324219 37.699219 24.800781 37.699219 C 19.28125 37.699219 14.882813 33.300781 14.882813 27.777344 L 14.882813 6.945313 C 14.882813 6.398438 14.433594 5.953125 13.890625 5.953125 L 9.921875 5.953125 C 9.890625 5.953125 9.859375 5.953125 9.828125 5.953125 C 9.796875 5.953125 9.765625 5.953125 9.734375 5.953125 Z M 10.914063 7.9375 L 12.898438 7.9375 L 12.898438 27.777344 C 12.898438 34.363281 18.21875 39.683594 24.800781 39.683594 C 31.386719 39.683594 36.707031 34.363281 36.707031 27.777344 L 36.707031 7.9375 L 38.691406 7.9375 L 38.691406 27.777344 C 38.691406 35.476563 32.5 41.667969 24.800781 41.667969 C 17.101563 41.667969 10.914063 35.476563 10.914063 27.777344 Z M 10.726563 46.628906 C 10.179688 46.675781 9.777344 47.164063 9.828125 47.710938 C 9.878906 48.257813 10.367188 48.660156 10.914063 48.609375 L 38.691406 48.609375 C 39.046875 48.613281 39.378906 48.429688 39.5625 48.117188 C 39.742188 47.808594 39.742188 47.429688 39.5625 47.121094 C 39.378906 46.808594 39.046875 46.625 38.691406 46.628906 L 10.914063 46.628906 C 10.882813 46.628906 10.851563 46.628906 10.820313 46.628906 C 10.789063 46.628906 10.757813 46.628906 10.726563 46.628906 Z "/>
</g>
</svg>
