<?xml version="1.0" encoding="UTF-8"?>
<svg xmlns="http://www.w3.org/2000/svg" xmlns:xlink="http://www.w3.org/1999/xlink" width="50pt" height="50pt" viewBox="0 0 50 50" version="1.1">
<g id="surface1">
<path style=" stroke:none;fill-rule:nonzero;fill:#5B5B5B;fill-opacity:1;" d="M 9.921875 5.953125 C 9.375 5.953125 8.929688 6.398438 8.929688 6.945313 L 8.929688 27.777344 C 8.929688 36.527344 16.050781 43.652344 24.800781 43.652344 C 33.550781 43.652344 40.675781 36.527344 40.675781 27.777344 L 40.675781 6.945313 C 40.675781 6.398438 40.234375 5.953125 39.683594 5.953125 L 35.714844 5.953125 C 35.164063 5.953125 34.722656 6.398438 34.722656 6.945313 L 34.722656 27.777344 C 34.722656 33.25 30.273438 37.699219 24.800781 37.699219 C 19.328125 37.699219 14.882813 33.25 14.882813 27.777344 L 14.882813 6.945313 C 14.882813 6.398438 14.433594 5.953125 13.890625 5.953125 Z M 10.914063 46.628906 C 10.367188 46.628906 9.921875 47.070313 9.921875 47.617188 C 9.921875 48.167969 10.367188 48.609375 10.914063 48.609375 L 38.691406 48.609375 C 39.242188 48.609375 39.683594 48.167969 39.683594 47.617188 C 39.683594 47.070313 39.242188 46.628906 38.691406 46.628906 Z "/>
</g>
</svg>
