<?xml version="1.0" encoding="UTF-8"?>
<svg xmlns="http://www.w3.org/2000/svg" xmlns:xlink="http://www.w3.org/1999/xlink" width="48pt" height="48pt" viewBox="0 0 48 48" version="1.1">
<g id="surface1">
<path style=" stroke:none;fill-rule:nonzero;fill:#5B5B5B;fill-opacity:1;" d="M 24 10 C 12 10 2.773438 22.210938 2.375 22.8125 C 1.773438 23.609375 1.773438 24.390625 2.375 25.1875 C 2.773438 25.789063 12 38 24 38 C 36 38 45.226563 25.789063 45.625 25.1875 C 46.226563 24.390625 46.226563 23.609375 45.625 22.8125 C 45.226563 22.210938 36 10 24 10 Z M 24 14 C 29.601563 14 34 18.398438 34 24 C 34 29.601563 29.601563 34 24 34 C 18.398438 34 14 29.601563 14 24 C 14 18.398438 18.398438 14 24 14 Z M 24 19 C 21.242188 19 19 21.242188 19 24 C 19 26.757813 21.242188 29 24 29 C 26.757813 29 29 26.757813 29 24 C 29 21.242188 26.757813 19 24 19 Z "/>
</g>
</svg>
