<?xml version="1.0" encoding="UTF-8"?>
<svg xmlns="http://www.w3.org/2000/svg" xmlns:xlink="http://www.w3.org/1999/xlink" width="50pt" height="50pt" viewBox="0 0 50 50" version="1.1">
<g id="surface1">
<path style=" stroke:none;fill-rule:nonzero;fill:#5B5B5B;fill-opacity:1;" d="M 6.757813 5.953125 C 6.445313 6.015625 6.179688 6.21875 6.046875 6.511719 C 6.046875 6.511719 4.269531 9.921875 0.992188 9.921875 C 0.636719 9.917969 0.300781 10.101563 0.121094 10.414063 C -0.0585938 10.722656 -0.0585938 11.101563 0.121094 11.414063 C 0.300781 11.722656 0.636719 11.910156 0.992188 11.90625 C 4.375 11.90625 6.066406 9.882813 6.945313 8.585938 C 7.820313 9.886719 9.496094 11.90625 12.898438 11.90625 C 16.300781 11.90625 17.972656 9.886719 18.847656 8.585938 C 19.722656 9.886719 21.398438 11.90625 24.800781 11.90625 C 28.203125 11.90625 29.882813 9.886719 30.753906 8.585938 C 31.625 9.886719 33.300781 11.90625 36.707031 11.90625 C 40.113281 11.90625 41.785156 9.886719 42.660156 8.585938 C 43.535156 9.882813 45.222656 11.90625 48.609375 11.90625 C 48.96875 11.910156 49.300781 11.722656 49.484375 11.414063 C 49.660156 11.101563 49.660156 10.722656 49.484375 10.414063 C 49.300781 10.101563 48.96875 9.917969 48.609375 9.921875 C 45.324219 9.921875 43.558594 6.511719 43.558594 6.511719 C 43.394531 6.160156 43.042969 5.9375 42.660156 5.9375 C 42.273438 5.9375 41.921875 6.160156 41.757813 6.511719 C 41.757813 6.511719 40.039063 9.921875 36.707031 9.921875 C 33.375 9.921875 31.652344 6.511719 31.652344 6.511719 C 31.492188 6.160156 31.136719 5.9375 30.753906 5.9375 C 30.371094 5.9375 30.019531 6.160156 29.855469 6.511719 C 29.855469 6.511719 28.132813 9.921875 24.800781 9.921875 C 21.46875 9.921875 19.75 6.511719 19.75 6.511719 C 19.585938 6.160156 19.234375 5.9375 18.847656 5.9375 C 18.464844 5.9375 18.113281 6.160156 17.949219 6.511719 C 17.949219 6.511719 16.226563 9.921875 12.898438 9.921875 C 9.566406 9.921875 7.84375 6.511719 7.84375 6.511719 C 7.660156 6.132813 7.265625 5.910156 6.851563 5.953125 C 6.820313 5.953125 6.789063 5.953125 6.757813 5.953125 Z M 6.757813 21.824219 C 6.445313 21.886719 6.179688 22.09375 6.046875 22.382813 C 6.046875 22.382813 4.269531 25.792969 0.992188 25.792969 C 0.636719 25.789063 0.300781 25.976563 0.121094 26.285156 C -0.0585938 26.597656 -0.0585938 26.976563 0.121094 27.285156 C 0.300781 27.59375 0.636719 27.78125 0.992188 27.777344 C 4.375 27.777344 6.066406 25.753906 6.945313 24.460938 C 7.820313 25.757813 9.496094 27.777344 12.898438 27.777344 C 16.300781 27.777344 17.972656 25.757813 18.847656 24.460938 C 19.722656 25.757813 21.398438 27.777344 24.800781 27.777344 C 28.203125 27.777344 29.882813 25.757813 30.753906 24.460938 C 31.625 25.757813 33.300781 27.777344 36.707031 27.777344 C 40.113281 27.777344 41.785156 25.757813 42.660156 24.460938 C 43.535156 25.753906 45.222656 27.777344 48.609375 27.777344 C 48.96875 27.78125 49.300781 27.59375 49.484375 27.285156 C 49.660156 26.976563 49.660156 26.597656 49.484375 26.285156 C 49.300781 25.976563 48.96875 25.789063 48.609375 25.792969 C 45.324219 25.792969 43.558594 22.382813 43.558594 22.382813 C 43.394531 22.035156 43.042969 21.808594 42.660156 21.808594 C 42.273438 21.808594 41.921875 22.035156 41.757813 22.382813 C 41.757813 22.382813 40.039063 25.792969 36.707031 25.792969 C 33.375 25.792969 31.652344 22.382813 31.652344 22.382813 C 31.492188 22.035156 31.136719 21.808594 30.753906 21.808594 C 30.371094 21.808594 30.019531 22.035156 29.855469 22.382813 C 29.855469 22.382813 28.132813 25.792969 24.800781 25.792969 C 21.46875 25.792969 19.75 22.382813 19.75 22.382813 C 19.585938 22.035156 19.234375 21.808594 18.847656 21.808594 C 18.464844 21.808594 18.113281 22.035156 17.949219 22.382813 C 17.949219 22.382813 16.226563 25.792969 12.898438 25.792969 C 9.566406 25.792969 7.84375 22.382813 7.84375 22.382813 C 7.660156 22.007813 7.265625 21.78125 6.851563 21.824219 C 6.820313 21.824219 6.789063 21.824219 6.757813 21.824219 Z M 6.757813 37.699219 C 6.445313 37.761719 6.179688 37.964844 6.046875 38.257813 C 6.046875 38.257813 4.269531 41.667969 0.992188 41.667969 C 0.636719 41.664063 0.300781 41.847656 0.121094 42.160156 C -0.0585938 42.46875 -0.0585938 42.847656 0.121094 43.160156 C 0.300781 43.46875 0.636719 43.65625 0.992188 43.652344 C 4.375 43.652344 6.066406 41.628906 6.945313 40.332031 C 7.820313 41.632813 9.496094 43.652344 12.898438 43.652344 C 16.300781 43.652344 17.972656 41.632813 18.847656 40.332031 C 19.722656 41.632813 21.398438 43.652344 24.800781 43.652344 C 28.203125 43.652344 29.882813 41.632813 30.753906 40.332031 C 31.625 41.632813 33.300781 43.652344 36.707031 43.652344 C 40.113281 43.652344 41.785156 41.632813 42.660156 40.332031 C 43.535156 41.628906 45.222656 43.652344 48.609375 43.652344 C 48.96875 43.65625 49.300781 43.46875 49.484375 43.160156 C 49.660156 42.847656 49.660156 42.46875 49.484375 42.160156 C 49.300781 41.847656 48.96875 41.664063 48.609375 41.667969 C 45.324219 41.667969 43.558594 38.257813 43.558594 38.257813 C 43.394531 37.90625 43.042969 37.683594 42.660156 37.683594 C 42.273438 37.683594 41.921875 37.90625 41.757813 38.257813 C 41.757813 38.257813 40.039063 41.667969 36.707031 41.667969 C 33.375 41.667969 31.652344 38.257813 31.652344 38.257813 C 31.492188 37.90625 31.136719 37.683594 30.753906 37.683594 C 30.371094 37.683594 30.019531 37.90625 29.855469 38.257813 C 29.855469 38.257813 28.132813 41.667969 24.800781 41.667969 C 21.46875 41.667969 19.75 38.257813 19.75 38.257813 C 19.585938 37.90625 19.234375 37.683594 18.847656 37.683594 C 18.464844 37.683594 18.113281 37.90625 17.949219 38.257813 C 17.949219 38.257813 16.226563 41.667969 12.898438 41.667969 C 9.566406 41.667969 7.84375 38.257813 7.84375 38.257813 C 7.660156 37.878906 7.265625 37.65625 6.851563 37.699219 C 6.820313 37.699219 6.789063 37.699219 6.757813 37.699219 Z "/>
</g>
</svg>
