<?xml version="1.0" encoding="UTF-8"?>
<svg xmlns="http://www.w3.org/2000/svg" xmlns:xlink="http://www.w3.org/1999/xlink" width="50pt" height="50pt" viewBox="0 0 50 50" version="1.1">
<g id="surface1">
<path style=" stroke:none;fill-rule:nonzero;fill:#5B5B5B;fill-opacity:1;" d="M 6.757813 4.960938 C 6.082031 5.027344 5.484375 5.4375 5.175781 6.046875 C 5.175781 6.046875 3.765625 8.488281 1.644531 8.867188 C 0.566406 9.0625 -0.152344 10.097656 0.046875 11.175781 C 0.246094 12.253906 1.277344 12.96875 2.355469 12.773438 C 4.429688 12.402344 5.90625 11.300781 6.945313 10.230469 C 8.207031 11.554688 10.113281 12.898438 12.898438 12.898438 C 15.679688 12.898438 17.585938 11.554688 18.847656 10.230469 C 20.113281 11.558594 22.019531 12.898438 24.800781 12.898438 C 27.585938 12.898438 29.492188 11.558594 30.753906 10.230469 C 32.015625 11.558594 33.925781 12.898438 36.707031 12.898438 C 39.488281 12.898438 41.394531 11.558594 42.660156 10.230469 C 43.699219 11.304688 45.1875 12.410156 47.277344 12.773438 C 47.992188 12.929688 48.726563 12.679688 49.203125 12.125 C 49.675781 11.574219 49.8125 10.808594 49.554688 10.125 C 49.292969 9.449219 48.679688 8.964844 47.960938 8.867188 C 45.8125 8.496094 44.425781 6.046875 44.425781 6.046875 C 44.082031 5.382813 43.394531 4.972656 42.652344 4.980469 C 41.902344 4.988281 41.226563 5.410156 40.890625 6.078125 C 40.890625 6.078125 39.382813 8.929688 36.707031 8.929688 C 34.027344 8.929688 32.519531 6.078125 32.519531 6.078125 C 32.179688 5.414063 31.496094 4.996094 30.753906 4.996094 C 30.011719 4.996094 29.328125 5.414063 28.988281 6.078125 C 28.988281 6.078125 27.476563 8.929688 24.800781 8.929688 C 22.128906 8.929688 20.617188 6.078125 20.617188 6.078125 C 20.273438 5.414063 19.59375 4.996094 18.847656 4.996094 C 18.105469 4.996094 17.421875 5.414063 17.082031 6.078125 C 17.082031 6.078125 15.566406 8.929688 12.898438 8.929688 C 10.226563 8.929688 8.710938 6.078125 8.710938 6.078125 C 8.355469 5.335938 7.574219 4.890625 6.757813 4.960938 Z M 6.757813 20.832031 C 6.082031 20.898438 5.484375 21.308594 5.175781 21.917969 C 5.175781 21.917969 3.769531 24.359375 1.644531 24.738281 C 0.566406 24.9375 -0.152344 25.972656 0.046875 27.050781 C 0.246094 28.125 1.277344 28.84375 2.355469 28.644531 C 4.429688 28.273438 5.90625 27.171875 6.945313 26.105469 C 8.207031 27.429688 10.113281 28.769531 12.898438 28.769531 C 15.679688 28.769531 17.585938 27.429688 18.847656 26.105469 C 20.113281 27.433594 22.019531 28.769531 24.800781 28.769531 C 27.585938 28.769531 29.492188 27.433594 30.753906 26.105469 C 32.015625 27.433594 33.925781 28.769531 36.707031 28.769531 C 39.488281 28.769531 41.394531 27.433594 42.660156 26.105469 C 43.699219 27.175781 45.1875 28.28125 47.277344 28.644531 C 47.992188 28.800781 48.726563 28.554688 49.203125 28 C 49.675781 27.449219 49.8125 26.679688 49.554688 26 C 49.292969 25.320313 48.679688 24.835938 47.960938 24.738281 C 45.8125 24.367188 44.425781 21.917969 44.425781 21.917969 C 44.082031 21.253906 43.394531 20.84375 42.652344 20.851563 C 41.902344 20.859375 41.226563 21.28125 40.890625 21.949219 C 40.890625 21.949219 39.382813 24.800781 36.707031 24.800781 C 34.027344 24.800781 32.519531 21.949219 32.519531 21.949219 C 32.179688 21.285156 31.496094 20.867188 30.753906 20.867188 C 30.011719 20.867188 29.328125 21.285156 28.988281 21.949219 C 28.988281 21.949219 27.476563 24.800781 24.800781 24.800781 C 22.128906 24.800781 20.617188 21.949219 20.617188 21.949219 C 20.273438 21.285156 19.59375 20.867188 18.847656 20.867188 C 18.105469 20.867188 17.421875 21.285156 17.082031 21.949219 C 17.082031 21.949219 15.566406 24.800781 12.898438 24.800781 C 10.226563 24.800781 8.710938 21.949219 8.710938 21.949219 C 8.355469 21.210938 7.574219 20.761719 6.757813 20.832031 Z M 6.757813 36.707031 C 6.082031 36.773438 5.484375 37.183594 5.175781 37.792969 C 5.175781 37.792969 3.769531 40.234375 1.644531 40.613281 C 0.566406 40.808594 -0.152344 41.84375 0.046875 42.921875 C 0.246094 44 1.277344 44.714844 2.355469 44.519531 C 4.429688 44.148438 5.90625 43.046875 6.945313 41.976563 C 8.207031 43.300781 10.113281 44.644531 12.898438 44.644531 C 15.679688 44.644531 17.585938 43.300781 18.847656 41.976563 C 20.113281 43.304688 22.019531 44.644531 24.800781 44.644531 C 27.585938 44.644531 29.492188 43.304688 30.753906 41.976563 C 32.015625 43.304688 33.925781 44.644531 36.707031 44.644531 C 39.488281 44.644531 41.394531 43.304688 42.660156 41.976563 C 43.699219 43.050781 45.1875 44.15625 47.277344 44.519531 C 47.992188 44.675781 48.726563 44.425781 49.203125 43.871094 C 49.675781 43.320313 49.8125 42.554688 49.554688 41.871094 C 49.292969 41.195313 48.679688 40.710938 47.960938 40.613281 C 45.8125 40.242188 44.425781 37.792969 44.425781 37.792969 C 44.082031 37.128906 43.394531 36.71875 42.652344 36.726563 C 41.902344 36.734375 41.226563 37.15625 40.890625 37.824219 C 40.890625 37.824219 39.382813 40.675781 36.707031 40.675781 C 34.027344 40.675781 32.519531 37.824219 32.519531 37.824219 C 32.179688 37.160156 31.496094 36.742188 30.753906 36.742188 C 30.011719 36.742188 29.328125 37.160156 28.988281 37.824219 C 28.988281 37.824219 27.476563 40.675781 24.800781 40.675781 C 22.128906 40.675781 20.617188 37.824219 20.617188 37.824219 C 20.273438 37.160156 19.59375 36.742188 18.847656 36.742188 C 18.105469 36.742188 17.421875 37.160156 17.082031 37.824219 C 17.082031 37.824219 15.566406 40.675781 12.898438 40.675781 C 10.226563 40.675781 8.710938 37.824219 8.710938 37.824219 C 8.355469 37.082031 7.574219 36.636719 6.757813 36.707031 Z "/>
</g>
</svg>
