<?xml version="1.0" encoding="UTF-8"?>
<svg xmlns="http://www.w3.org/2000/svg" xmlns:xlink="http://www.w3.org/1999/xlink" width="64pt" height="64pt" viewBox="0 0 64 64" version="1.1">
<g id="surface1">
<path style=" stroke:none;fill-rule:nonzero;fill:#5B5B5B;fill-opacity:1;" d="M 8 16 L 8 48 L 12 48 L 12 16 Z M 16 16 C 14.898438 16 14 16.898438 14 18 C 14 19.101563 14.898438 20 16 20 C 17.101563 20 18 19.101563 18 18 C 18 16.898438 17.101563 16 16 16 Z M 24 16 C 22.898438 16 22 16.898438 22 18 C 22 19.101563 22.898438 20 24 20 C 25.101563 20 26 19.101563 26 18 C 26 16.898438 25.101563 16 24 16 Z M 32 16 C 30.898438 16 30 16.898438 30 18 C 30 19.101563 30.898438 20 32 20 C 33.101563 20 34 19.101563 34 18 C 34 16.898438 33.101563 16 32 16 Z M 40 16 C 38.898438 16 38 16.898438 38 18 C 38 19.101563 38.898438 20 40 20 C 41.101563 20 42 19.101563 42 18 C 42 16.898438 41.101563 16 40 16 Z M 48 16 C 46.898438 16 46 16.898438 46 18 C 46 19.101563 46.898438 20 48 20 C 49.101563 20 50 19.101563 50 18 C 50 16.898438 49.101563 16 48 16 Z M 52 16 L 52 48 L 56 48 L 56 16 Z M 22 26 L 14 32 L 22 38 L 22 34 L 42 34 L 42 38 L 50 32 L 42 26 L 42 30 L 22 30 Z M 16 44 C 14.898438 44 14 44.898438 14 46 C 14 47.101563 14.898438 48 16 48 C 17.101563 48 18 47.101563 18 46 C 18 44.898438 17.101563 44 16 44 Z M 24 44 C 22.898438 44 22 44.898438 22 46 C 22 47.101563 22.898438 48 24 48 C 25.101563 48 26 47.101563 26 46 C 26 44.898438 25.101563 44 24 44 Z M 32 44 C 30.898438 44 30 44.898438 30 46 C 30 47.101563 30.898438 48 32 48 C 33.101563 48 34 47.101563 34 46 C 34 44.898438 33.101563 44 32 44 Z M 40 44 C 38.898438 44 38 44.898438 38 46 C 38 47.101563 38.898438 48 40 48 C 41.101563 48 42 47.101563 42 46 C 42 44.898438 41.101563 44 40 44 Z M 48 44 C 46.898438 44 46 44.898438 46 46 C 46 47.101563 46.898438 48 48 48 C 49.101563 48 50 47.101563 50 46 C 50 44.898438 49.101563 44 48 44 Z "/>
</g>
</svg>
