<?xml version="1.0" encoding="UTF-8"?>
<svg xmlns="http://www.w3.org/2000/svg" xmlns:xlink="http://www.w3.org/1999/xlink" width="48pt" height="48pt" viewBox="0 0 48 48" version="1.1">
<g id="surface1">
<path style=" stroke:none;fill-rule:nonzero;fill:#5B5B5B;fill-opacity:1;" d="M 12 42 L 12 6 L 23.796875 6 C 28 6 31.398438 6.796875 33.796875 8.398438 C 36.203125 10 37.398438 12.601563 37.398438 15.796875 C 37.398438 17.398438 37 19 36.203125 20.203125 C 35.398438 21.601563 34 22.398438 32.398438 23.203125 C 34.601563 23.601563 36.398438 24.601563 37.398438 26.203125 C 38.601563 27.796875 39.203125 29.601563 39.203125 31.601563 C 39.203125 35 38 37.601563 35.796875 39.398438 C 33.398438 41.203125 30 42 26 42 Z M 19.203125 21 L 24 21 C 26 21 27.398438 20.601563 28.398438 19.796875 C 29.601563 19.203125 30 18 30 16.398438 C 30 14.796875 29.398438 13.601563 28.398438 12.796875 C 27.398438 12 25.796875 11.601563 23.796875 11.601563 L 19.203125 11.601563 Z M 19.203125 26 L 19.203125 36.398438 L 26 36.398438 C 28 36.398438 29.398438 36 30.398438 35.203125 C 31.398438 34.398438 32 33.203125 32 31.601563 C 32 29.796875 31.601563 28.601563 30.601563 27.601563 C 29.601563 26.601563 28.203125 26.203125 26.203125 26.203125 L 19.203125 26.203125 Z "/>
</g>
</svg>
