<?xml version="1.0" encoding="utf-8"?>
<svg xmlns="http://www.w3.org/2000/svg" width="50" height="50" viewBox="0 0 50 50" fill="#000000"><path style="text-indent:0;text-align:start;line-height:normal;text-transform:none;block-progression:tb;-inkscape-font-specification:Bitstream Vera Sans" d="M 2.90625 10 C 1.3747833 10 0.14712339 11.216266 0 12.6875 A 0.99659967 0.99659967 0 0 0 0 12.8125 L 0 28.8125 C 0.11026075 34.435798 4.6784281 39 10.3125 39 C 13.737516 39 16.690649 37.281832 18.53125 34.6875 C 20.424731 37.210983 23.327128 39 26.6875 39 C 29.097378 39 31.327694 38.131838 33.09375 36.71875 C 33.238864 37.372669 33.618432 37.979449 34.1875 38.40625 C 35.412673 39.32513 37.22876 39.18457 38.1875 37.90625 L 41.5 33.5 L 44.8125 37.90625 C 45.718891 39.114771 47.478133 39.379318 48.71875 38.40625 L 48.75 38.4375 C 48.77121 38.42336 48.76062 38.38958 48.78125 38.375 C 48.80043 38.3591 48.82485 38.36028 48.84375 38.34375 L 48.8125 38.3125 C 49.827262 37.55329 50.005778 36.328914 49.6875 35.21875 A 0.99659967 0.99659967 0 0 0 49.6875 35.125 A 0.99659967 0.99659967 0 0 0 49.5625 34.53125 A 0.99659967 0.99659967 0 0 0 49.5625 34.5 A 0.99659967 0.99659967 0 0 0 49.53125 34.4375 A 0.99659967 0.99659967 0 0 0 49.5 34.40625 L 49.46875 34.34375 A 0.99659967 0.99659967 0 0 0 49.40625 34.28125 L 45.125 28.59375 L 49.5 22.8125 C 50.450768 21.544809 50.152682 19.747324 48.90625 18.8125 C 48.293663 18.35306 47.538286 18.138855 46.8125 18.21875 C 46.086714 18.29865 45.38562 18.67334 44.90625 19.3125 L 41.59375 23.78125 L 38.1875 19.40625 C 38.1817 19.39855 38.16209 19.41385 38.15625 19.40625 C 37.224488 18.190659 35.422199 17.861057 34.1875 18.90625 C 34.1797 18.91205 34.1952 18.93162 34.1875 18.9375 C 34.183 18.9409 34.1607 18.934 34.15625 18.9375 C 33.611653 19.359564 33.270192 19.959862 33.125 20.59375 C 31.490097 19.313982 29.450452 18.506672 27.25 18.40625 C 27.21616 18.40475 27.19017 18.37621 27.15625 18.375 A 0.99659967 0.99659967 0 0 0 26.875 18.3125 C 26.85369 18.312367 26.83384 18.3125 26.8125 18.3125 C 26.77008 18.3125 26.7298 18.311995 26.6875 18.3125 A 0.99659967 0.99659967 0 0 0 26.5 18.34375 A 0.99659967 0.99659967 0 0 0 26.40625 18.375 C 23.161843 18.503584 20.359927 20.117036 18.59375 22.59375 C 16.70089 20.062226 13.773166 18.3125 10.40625 18.3125 C 8.7219948 18.3125 7.1913102 18.833615 5.78125 19.5625 L 5.78125 12.8125 C 5.78125 11.281033 4.4894015 10 2.90625 10 z M 2.90625 12 C 3.5230985 12 3.8125 12.343967 3.8125 12.8125 L 3.8125 21.1875 A 0.99659967 0.99659967 0 0 0 5.40625 22 C 6.8521247 20.915594 8.5276944 20.28125 10.40625 20.28125 C 13.50765 20.28125 16.283454 22.179776 17.71875 24.78125 A 0.99659967 0.99659967 0 0 0 19.5 24.75 C 20.820569 22.108862 23.528978 20.315711 26.71875 20.28125 A 0.99659967 0.99659967 0 0 0 26.8125 20.28125 C 31.365402 20.28125 35.089489 24.034092 35 28.6875 C 35 33.240402 31.240402 37 26.6875 37 C 23.5861 37 20.810296 35.132724 19.375 32.53125 A 0.99659967 0.99659967 0 0 0 17.59375 32.5625 C 16.260125 35.229749 13.543426 37 10.3125 37 C 5.7571707 37 2.105998 33.374254 2 28.8125 L 2 28.78125 L 2 12.90625 C 2.0528766 12.377484 2.4377167 12 2.90625 12 z M 47.03125 20.21875 C 47.251114 20.200382 47.500087 20.26569 47.6875 20.40625 C 48.041068 20.671426 48.155482 21.261441 47.90625 21.59375 L 43.09375 28 A 0.99659967 0.99659967 0 0 0 43.09375 29.1875 L 47.78125 35.40625 A 0.99659967 0.99659967 0 0 0 47.78125 35.4375 L 47.875 35.53125 C 48.138594 36.046345 48.096556 36.487713 47.65625 36.78125 A 0.99659967 0.99659967 0 0 0 47.53125 36.84375 C 47.173694 37.156611 46.671426 37.041068 46.40625 36.6875 L 42.3125 31.21875 A 0.99659967 0.99659967 0 0 0 40.6875 31.21875 L 36.59375 36.6875 C 36.35249 37.00918 35.781077 37.09362 35.40625 36.8125 C 35.052682 36.547324 34.938268 35.926059 35.1875 35.59375 L 40 29.3125 A 0.99659967 0.99659967 0 0 0 40 28.09375 L 35.1875 21.6875 C 34.938268 21.355191 35.052682 20.765176 35.40625 20.5 A 0.99659967 0.99659967 0 0 0 35.46875 20.4375 C 35.647528 20.281069 35.853691 20.249349 36.0625 20.28125 C 36.271309 20.31315 36.461162 20.416966 36.59375 20.59375 A 0.99659967 0.99659967 0 0 0 36.625 20.625 L 40.8125 26 A 0.99659967 0.99659967 0 0 0 42.40625 26 L 46.5 20.5 C 46.62063 20.33916 46.811386 20.237118 47.03125 20.21875 z M 10.3125 22 C 6.6767473 22 3.71875 24.957997 3.71875 28.59375 C 3.71875 32.229503 6.6767473 35.1875 10.3125 35.1875 C 13.948253 35.1875 16.90625 32.229503 16.90625 28.59375 C 16.90625 24.957997 13.948253 22 10.3125 22 z M 26.8125 22 C 23.176747 22 20.21875 24.957997 20.21875 28.59375 C 20.21875 32.229503 23.176747 35.1875 26.8125 35.1875 C 30.448253 35.1875 33.40625 32.229503 33.40625 28.59375 C 33.40625 24.957997 30.448253 22 26.8125 22 z M 10.3125 24 C 12.876747 24 14.90625 26.029503 14.90625 28.59375 C 14.90625 31.157997 12.876747 33.21875 10.3125 33.21875 C 7.7482527 33.21875 5.6875 31.157997 5.6875 28.59375 C 5.6875 26.029503 7.7482527 24 10.3125 24 z M 26.8125 24 C 29.376747 24 31.40625 26.029503 31.40625 28.59375 C 31.40625 31.157997 29.376747 33.21875 26.8125 33.21875 C 24.248253 33.21875 22.1875 31.157997 22.1875 28.59375 C 22.1875 26.029503 24.248253 24 26.8125 24 z M 36.9375 27.34375 L 37.9375 28.6875 L 36.875 30.0625 C 36.936201 29.618094 36.998581 29.178244 37 28.71875 C 37.000033 28.70817 37 28.69809 37 28.6875 C 37.007382 28.230647 36.988736 27.783938 36.9375 27.34375 z" color="#000" overflow="visible" enable-background="accumulate" font-family="Bitstream Vera Sans" fill="#000000"/></svg>
