<?xml version="1.0" encoding="utf-8"?>
<svg xmlns="http://www.w3.org/2000/svg" viewBox="0 0 50 50" fill="#000000"><path style="line-height:normal;text-indent:0;text-align:start;text-decoration-line:none;text-decoration-style:solid;text-decoration-color:#000;text-transform:none;block-progression:tb;isolation:auto;mix-blend-mode:normal" d="M 11 4 C 7.1456661 4 4 7.1456661 4 11 L 4 39 C 4 42.854334 7.1456661 46 11 46 L 39 46 C 42.854334 46 46 42.854334 46 39 L 46 11 C 46 7.1456661 42.854334 4 39 4 L 11 4 z M 11 6 L 39 6 C 41.773666 6 44 8.2263339 44 11 L 44 39 C 44 41.773666 41.773666 44 39 44 L 11 44 C 8.2263339 44 6 41.773666 6 39 L 6 11 C 6 8.2263339 8.2263339 6 11 6 z M 36.236328 15.833984 L 22.914062 31.554688 L 14.78125 23.96875 L 13.417969 25.431641 L 23.083984 34.447266 L 37.763672 17.126953 L 36.236328 15.833984 z" color="#000" font-weight="400" font-family="sans-serif" white-space="normal" overflow="visible" fill="#000000"/></svg>
