<?xml version="1.0" encoding="UTF-8"?>
<svg xmlns="http://www.w3.org/2000/svg" xmlns:xlink="http://www.w3.org/1999/xlink" width="64pt" height="64pt" viewBox="0 0 64 64" version="1.1">
<g id="surface1">
<path style=" stroke:none;fill-rule:nonzero;fill:#5B5B5B;fill-opacity:1;" d="M 16 8 L 16 12 L 48 12 L 48 8 Z M 18 14 C 16.898438 14 16 14.898438 16 16 C 16 17.101563 16.898438 18 18 18 C 19.101563 18 20 17.101563 20 16 C 20 14.898438 19.101563 14 18 14 Z M 32 14 L 26 22 L 30 22 L 30 42 L 26 42 L 32 50 L 38 42 L 34 42 L 34 22 L 38 22 Z M 46 14 C 44.898438 14 44 14.898438 44 16 C 44 17.101563 44.898438 18 46 18 C 47.101563 18 48 17.101563 48 16 C 48 14.898438 47.101563 14 46 14 Z M 18 22 C 16.898438 22 16 22.898438 16 24 C 16 25.101563 16.898438 26 18 26 C 19.101563 26 20 25.101563 20 24 C 20 22.898438 19.101563 22 18 22 Z M 46 22 C 44.898438 22 44 22.898438 44 24 C 44 25.101563 44.898438 26 46 26 C 47.101563 26 48 25.101563 48 24 C 48 22.898438 47.101563 22 46 22 Z M 18 30 C 16.898438 30 16 30.898438 16 32 C 16 33.101563 16.898438 34 18 34 C 19.101563 34 20 33.101563 20 32 C 20 30.898438 19.101563 30 18 30 Z M 46 30 C 44.898438 30 44 30.898438 44 32 C 44 33.101563 44.898438 34 46 34 C 47.101563 34 48 33.101563 48 32 C 48 30.898438 47.101563 30 46 30 Z M 18 38 C 16.898438 38 16 38.898438 16 40 C 16 41.101563 16.898438 42 18 42 C 19.101563 42 20 41.101563 20 40 C 20 38.898438 19.101563 38 18 38 Z M 46 38 C 44.898438 38 44 38.898438 44 40 C 44 41.101563 44.898438 42 46 42 C 47.101563 42 48 41.101563 48 40 C 48 38.898438 47.101563 38 46 38 Z M 18 46 C 16.898438 46 16 46.898438 16 48 C 16 49.101563 16.898438 50 18 50 C 19.101563 50 20 49.101563 20 48 C 20 46.898438 19.101563 46 18 46 Z M 46 46 C 44.898438 46 44 46.898438 44 48 C 44 49.101563 44.898438 50 46 50 C 47.101563 50 48 49.101563 48 48 C 48 46.898438 47.101563 46 46 46 Z M 16 52 L 16 56 L 48 56 L 48 52 Z "/>
</g>
</svg>
