
<svg xmlns="http://www.w3.org/2000/svg" version="1.1" xmlns:xlink="http://www.w3.org/1999/xlink" preserveAspectRatio="none" x="0px" y="0px" width="50px" height="50px" viewBox="0 0 50 50">
<g id="Layer4_0_FILL">
<path fill="#000000" stroke="none" d="
M 8 23
Q 7.85 22.15 7 22
L 2.9 22
Q 2.55 22.05 2.25 22.35 1.9 22.65 2 23
L 2 27
Q 2 28 3 28
L 7 28
Q 7.85 28 8 27
L 8 23
M 4 24
L 6 24 6 26 4 26 4 24 Z"/>
</g>

<g id="Layer3_0_FILL">
<path fill="#000000" stroke="none" d="
M 48 23
Q 47.85 22.15 47 22
L 42.9 22
Q 42.55 22.05 42.25 22.35 41.9 22.65 42 23
L 42 27
Q 42 28 43 28
L 47 28
Q 47.85 28 48 27
L 48 23
M 44 24
L 46 24 46 26 44 26 44 24 Z"/>
</g>

<g id="Layer2_0_FILL">
<path fill="#000000" stroke="none" d="
M 28 6
Q 27.85 5.15 27 5
L 22.9 5
Q 22.55 5.05 22.25 5.35 21.9 5.65 22 6
L 22 10
Q 22 11 23 11
L 27 11
Q 27.85 11 28 10
L 28 6
M 24 9
L 24 7 26 7 26 9 24 9 Z"/>
</g>

<g id="Layer1_0_FILL">
<path fill="#000000" stroke="none" d="
M 28 40
Q 27.85 39.15 27 39
L 22.9 39
Q 22.55 39.05 22.25 39.35 21.9 39.65 22 40
L 22 44
Q 22 45 23 45
L 27 45
Q 27.85 45 28 44
L 28 40
M 26 41
L 26 43 24 43 24 41 26 41 Z"/>
</g>

<g id="Layer0_0_FILL">
<path fill="#000000" stroke="none" d="
M 6 27
L 4 27 4 39 2.9 39
Q 2.45 39.1 2.25 39.35 1.9 39.65 2 40
L 2 44
Q 2 45 3 45
L 7 45
Q 7.85 45 8 44
L 8 43 22.85 43 22.85 41 8 41 8 40
Q 7.85 39.15 7 39
L 6 39 6 27
M 6 41
L 6 43 4 43 4 41 6 41
M 23.05 9
L 23.05 7 8 7 8 6
Q 7.85 5.15 7 5
L 2.9 5
Q 2.55 5.05 2.25 5.35 1.9 5.65 2 6
L 2 10
Q 2 11 3 11
L 4 11 4 22.85 6 22.85 6 11 7 11
Q 7.85 11 8 10
L 8 9 23.05 9
M 4 9
L 4 7 6 7 6 9 4 9
M 46 27.3
L 44 27.3 44 39 42.9 39
Q 42.45 39.1 42.25 39.35 41.9 39.65 42 40
L 42 41 27.2 41 27.2 43 42 43 42 44
Q 42 45 43 45
L 47 45
Q 47.85 45 48 44
L 48 40
Q 47.85 39.15 47 39
L 46 39 46 27.3
M 46 41
L 46 43 44 43 44 41 46 41
M 48 6
Q 47.85 5.15 47 5
L 42.9 5
Q 42.55 5.05 42.25 5.35 41.9 5.65 42 6
L 42 7 27.2 7 27.2 9 42 9 42 10
Q 42 11 43 11
L 44 11 44 22.95 46 22.95 46 11 47 11
Q 47.85 11 48 10
L 48 6
M 44 9
L 44 7 46 7 46 9 44 9 Z"/>
</g>
</svg>
