<?xml version="1.0" encoding="UTF-8"?>
<svg xmlns="http://www.w3.org/2000/svg" xmlns:xlink="http://www.w3.org/1999/xlink" width="48pt" height="48pt" viewBox="0 0 48 48" version="1.1">
<g id="surface1">
<path style=" stroke:none;fill-rule:nonzero;fill:#5B5B5B;fill-opacity:1;" d="M 12.1875 6 L 12.1875 25.375 C 12.1875 28.773438 13.171875 31.390625 15.375 33.1875 C 17.578125 34.984375 20.398438 36 24 36 C 27.398438 36 30.375 34.984375 32.375 33.1875 C 34.578125 31.390625 35.8125 28.773438 35.8125 25.375 L 35.8125 6 L 30 6 L 30 25.375 C 30 27.375 29.375 29 28.375 30 C 27.171875 31 25.796875 31.625 24 31.625 C 22.203125 31.625 20.8125 31 19.8125 30 C 18.8125 28.796875 18.1875 27.375 18.1875 25.375 L 18.1875 6 Z M 12 40 L 12 44 L 36 44 L 36 40 Z "/>
</g>
</svg>
